<?xml version="1.0" standalone="no"?>
<!DOCTYPE svg PUBLIC "-//W3C//DTD SVG 20010904//EN"
 "http://www.w3.org/TR/2001/REC-SVG-20010904/DTD/svg10.dtd">
<svg version="1.0" xmlns="http://www.w3.org/2000/svg"
 width="1158.000000pt" height="843.000000pt" viewBox="0 0 1158.000000 843.000000"
 preserveAspectRatio="xMidYMid meet">

<g transform="translate(0.000000,843.000000) scale(0.100000,-0.100000)"
fill="#000000" stroke="none">
<path d="M9355 8197 l-680 -232 -5 -847 -5 -846 -85 34 c-1092 445 -3269 1044
-4682 1289 -225 38 -849 136 -1028 159 -610 82 -1427 106 -1694 50 -196 -41
-376 -117 -484 -206 -97 -79 -185 -209 -226 -333 -80 -247 -67 -868 30 -1445
49 -289 107 -574 164 -795 122 -475 183 -704 240 -890 33 -110 60 -203 60
-207 0 -4 -187 -9 -417 -10 l-416 -3 -63 -150 c-35 -82 -63 -158 -64 -167 0
-17 27 -18 435 -18 239 0 435 -2 435 -5 0 -3 -106 -217 -235 -475 -129 -258
-235 -472 -235 -475 0 -3 99 -5 219 -5 l219 0 173 340 173 339 49 -147 c105
-320 279 -724 459 -1072 450 -866 595 -1085 888 -1335 161 -137 388 -246 600
-289 208 -42 309 -49 620 -43 423 9 643 35 903 108 75 22 139 39 142 39 3 0 5
-126 5 -280 l0 -280 725 0 725 0 0 460 0 459 58 17 c281 78 514 163 1197 435
357 142 459 187 790 354 732 369 1267 721 1740 1146 68 61 154 147 192 192
151 177 356 464 424 591 l24 46 361 0 362 0 66 165 c36 91 66 172 66 180 0 13
-50 15 -389 15 l-388 0 -7 95 c-16 238 -64 411 -172 626 -99 198 -180 306
-376 502 l-178 178 0 1485 c0 1407 -1 1484 -17 1483 -10 0 -324 -104 -698
-232z m-6197 -837 c210 -29 453 -73 792 -141 162 -33 331 -66 375 -75 318 -62
1222 -278 1700 -405 962 -256 1770 -517 2403 -775 l242 -99 0 -1082 0 -1083
805 0 805 0 -68 -103 c-108 -160 -183 -250 -346 -412 -182 -182 -260 -247
-523 -438 -270 -196 -428 -299 -662 -429 -228 -127 -821 -422 -998 -497 -131
-56 -761 -285 -747 -271 5 4 86 63 179 130 483 348 499 363 818 734 170 198
294 380 392 577 231 467 291 818 206 1204 -40 181 -63 249 -122 365 -104 205
-250 392 -504 645 -104 105 -233 224 -285 266 -242 195 -800 530 -1165 701
-421 198 -660 296 -1155 473 -871 312 -1417 485 -2205 701 -142 39 -133 41 63
14z m-1473 -65 c126 -16 574 -104 660 -129 28 -8 103 -30 168 -49 65 -19 119
-36 121 -38 6 -8 -1369 -2727 -1376 -2721 -12 13 -68 193 -122 402 -87 330
-172 725 -220 1020 -58 357 -62 390 -85 680 -23 287 -18 408 23 535 30 90 34
98 114 178 65 66 146 110 242 132 80 18 297 14 475 -10z m2882 -776 c129 -38
246 -74 259 -79 l24 -10 0 -2694 0 -2694 -52 -22 c-313 -135 -819 -207 -1189
-170 -209 21 -444 88 -589 167 -224 123 -515 461 -755 878 -78 135 -241 452
-311 605 -191 418 -434 1014 -434 1065 0 13 80 15 660 15 l660 0 0 -325 0
-325 735 0 735 0 0 1830 c0 1333 3 1830 11 1830 6 0 117 -32 246 -71z m-1730
-2596 c-2 -2 -303 -2 -669 -1 l-666 3 667 1310 666 1310 3 -1309 c1 -720 1
-1311 -1 -1313z m3603 1870 c81 -62 298 -273 376 -366 105 -124 180 -243 269
-422 118 -240 218 -530 265 -771 40 -201 37 -568 -6 -844 -42 -269 -206 -746
-336 -974 -121 -212 -325 -438 -580 -644 l-128 -103 0 2106 0 2107 48 -27 c26
-15 67 -43 92 -62z m3811 -1097 c91 -148 156 -356 166 -533 l6 -103 -176 0
-177 0 0 428 1 427 65 -69 c36 -38 87 -106 115 -150z"/>
</g>
</svg>
