<?xml version="1.0" standalone="no"?>
<!DOCTYPE svg PUBLIC "-//W3C//DTD SVG 20010904//EN"
 "http://www.w3.org/TR/2001/REC-SVG-20010904/DTD/svg10.dtd">
<svg version="1.0" xmlns="http://www.w3.org/2000/svg"
 width="283.000000pt" height="235.000000pt" viewBox="0 0 283.000000 235.000000"
 preserveAspectRatio="xMidYMid meet">

<g transform="translate(0.000000,235.000000) scale(0.100000,-0.100000)"
fill="#000000" stroke="none">
<path d="M0 1175 l0 -1175 1415 0 1415 0 0 1175 0 1175 -1415 0 -1415 0 0
-1175z m1768 100 c37 -15 62 -39 62 -59 0 -12 -196 -6 -208 6 -19 19 -127 13
-164 -9 -36 -21 -59 -58 -51 -79 9 -25 83 -38 133 -24 25 7 92 15 150 17 l105
3 -29 -24 c-50 -42 -144 -61 -296 -61 -148 0 -202 11 -244 50 -69 64 14 153
178 191 86 19 306 13 364 -11z m-948 8 c-1 -5 -7 -19 -15 -33 -8 -14 -14 -28
-15 -32 0 -5 42 -8 93 -8 l92 0 17 40 17 40 101 0 c78 0 101 -3 97 -12 -3 -7
-26 -61 -53 -120 l-48 -108 -103 0 -103 0 20 40 c11 21 20 42 20 45 0 3 -42 5
-92 5 l-93 0 -18 -45 -19 -45 -100 0 c-76 0 -99 3 -95 13 3 6 26 60 53 120
l48 107 98 0 c54 0 98 -3 98 -7z m1300 -2 c0 -5 -16 -43 -35 -85 -19 -43 -35
-79 -35 -82 0 -2 61 -4 135 -4 74 0 135 -2 135 -5 0 -2 -5 -16 -12 -30 l-11
-25 -239 0 c-131 0 -238 4 -238 9 0 4 19 48 41 97 23 49 45 99 50 112 8 21 14
22 109 22 55 0 100 -4 100 -9z"/>
</g>
</svg>
