<?xml version="1.0" standalone="no"?>
<!DOCTYPE svg PUBLIC "-//W3C//DTD SVG 20010904//EN"
 "http://www.w3.org/TR/2001/REC-SVG-20010904/DTD/svg10.dtd">
<svg version="1.0" xmlns="http://www.w3.org/2000/svg"
 width="600.000000pt" height="300.000000pt" viewBox="0 0 600.000000 300.000000"
 preserveAspectRatio="xMidYMid meet">
<metadata>
Created by potrace 1.16, written by Peter Selinger 2001-2019
</metadata>
<g transform="translate(0.000000,300.000000) scale(0.100000,-0.100000)"
fill="#000000" stroke="none">
<path d="M1490 2330 l0 -189 117 -3 118 -3 202 -815 c111 -448 205 -825 208
-837 l5 -23 298 0 297 0 135 510 c74 280 137 506 140 502 4 -4 59 -216 124
-472 64 -256 122 -482 127 -502 l10 -38 297 0 297 0 220 840 220 840 113 0
112 0 0 190 0 190 -405 0 -405 0 0 -190 0 -190 131 0 c101 0 130 -3 126 -12
-2 -7 -64 -240 -137 -518 -74 -278 -136 -508 -139 -512 -4 -4 -85 314 -181
707 l-175 715 -192 0 -192 0 -9 -32 c-5 -18 -91 -344 -193 -725 -101 -380
-185 -691 -186 -690 -2 3 -273 1054 -273 1061 0 3 63 6 140 6 l140 0 0 190 0
190 -545 0 -545 0 0 -190z"/>
</g>
</svg>
